<svg width="36" height="32" viewBox="0 0 36 32" fill="none" xmlns="http://www.w3.org/2000/svg">
<path d="M35.7962 8.647C35.6925 8.51256 35.555 8.40283 35.3951 8.32705C35.2352 8.25128 35.0578 8.21167 34.8776 8.21156H10.8816L9.06516 2.49432C8.35284 0.243034 6.66021 0 5.96598 0H1.12278C0.502014 0 0 0.45872 0 1.02477C0 1.59082 0.50258 2.0495 1.12275 2.0495H5.96538C6.11858 2.0495 6.58611 2.0495 6.90499 3.05518L13.1536 24.0154C13.2893 24.4577 13.7308 24.7631 14.2345 24.7631H29.4973C29.9711 24.7631 30.3939 24.4922 30.5539 24.0851L35.9336 9.58301C36.0574 9.26877 36.006 8.91893 35.7962 8.647ZM28.7072 22.7141H15.0867L11.5127 10.2616H33.2813L28.7072 22.7141ZM26.4804 26.84C24.9189 26.84 23.6537 27.9948 23.6537 29.42C23.6537 30.8452 24.9189 32 26.4804 32C28.0418 32 29.307 30.8452 29.307 29.42C29.307 27.9948 28.0418 26.84 26.4804 26.84ZM16.3044 26.84C14.743 26.84 13.4777 27.9948 13.4777 29.42C13.4777 30.8452 14.743 32 16.3044 32C17.8659 32 19.1311 30.8452 19.1311 29.42C19.1311 27.9948 17.8659 26.84 16.3044 26.84Z" fill="#F4F4F4"/>
</svg>
